<?xml version="1.0" encoding="UTF-8" standalone="no"?>
<!-- Created with Inkscape (http://www.inkscape.org/) -->

<svg
   xmlns:dc="http://purl.org/dc/elements/1.1/"
   xmlns:cc="http://creativecommons.org/ns#"
   xmlns:rdf="http://www.w3.org/1999/02/22-rdf-syntax-ns#"
   xmlns:svg="http://www.w3.org/2000/svg"
   xmlns="http://www.w3.org/2000/svg"
   xmlns:sodipodi="http://sodipodi.sourceforge.net/DTD/sodipodi-0.dtd"
   xmlns:inkscape="http://www.inkscape.org/namespaces/inkscape"
   width="297mm"
   height="210mm"
   viewBox="0 0 1052.3622 744.09448"
   id="svg5303"
   version="1.1"
   inkscape:version="0.91 r13725"
   sodipodi:docname="minux.mtux.svg">
  <defs
     id="defs5305" />
  <sodipodi:namedview
     id="base"
     pagecolor="#ffffff"
     bordercolor="#66e166"
     borderopacity="1"
     inkscape:pageopacity="0.0"
     inkscape:pageshadow="2"
     inkscape:zoom="1"
     inkscape:cx="420.49739"
     inkscape:cy="448.72992"
     inkscape:document-units="px"
     inkscape:current-layer="layer1"
     showgrid="false"
     showborder="true"
     borderlayer="false"
     inkscape:showpageshadow="false"
     inkscape:window-width="1920"
     inkscape:window-height="1027"
     inkscape:window-x="0"
     inkscape:window-y="18"
     inkscape:window-maximized="1" />
  <metadata
     id="metadata5308">
    <rdf:RDF>
      <cc:Work
         rdf:about="">
        <dc:format>image/svg+xml</dc:format>
        <dc:type
           rdf:resource="http://purl.org/dc/dcmitype/StillImage" />
        <dc:title></dc:title>
      </cc:Work>
    </rdf:RDF>
  </metadata>
  <g
     inkscape:label="Layer 1"
     inkscape:groupmode="layer"
     id="layer1"
     transform="translate(0,-308.26772)">
    <g
       id="g3385"
       transform="translate(295.62814,2.2688238e-5)">
      <circle
         r="63.348419"
         cy="680.31494"
         cx="230.55296"
         id="path4193-3-1"
         style="fill:#008080;stroke:none" />
      <path
         sodipodi:nodetypes="csscssscssssc"
         inkscape:connector-curvature="0"
         id="path4072-8"
         d="m 210.20861,635.29835 c -0.76837,9.04726 -4.65063,14.89927 -4.20982,23.77431 0.73911,14.88075 5.60459,29.60371 5.56204,45.84716 -0.0192,7.30427 -3.18402,14.91601 -4.42713,22.9878 -4.17595,7.38821 43.68991,8.7439 47.35147,3.02243 0.67527,-1.05516 -5.92186,-9.32595 -8.25658,-22.01856 -2.23086,-12.12798 -0.37802,-28.29312 7.35171,-46.05811 7.81821,-17.96838 -2.90523,-27.68214 -5.70495,-31.78201 -1.28166,-5.92301 -14.80235,-7.08249 -28.03298,-5.86538 -20.87563,1.9204 -13.28693,1.88763 -2.72866,1.72975 0.87375,-0.013 -12.48576,4.0031 -13.14478,4.63586 -0.64005,0.61455 9.84517,-1.62163 9.2519,-0.89747 -1.09943,1.34201 -2.1118,2.87724 -3.01222,4.62422 z"
         style="fill:#000000;fill-rule:evenodd;stroke:none;stroke-width:1px;stroke-linecap:butt;stroke-linejoin:miter;stroke-opacity:1" />
      <circle
         r="8.5635633"
         cy="644.28693"
         cx="211.66737"
         id="path4074-5"
         style="fill:#ffffff;stroke:none" />
      <circle
         r="10.676761"
         cy="640.37744"
         cx="248.14267"
         id="path4076-7"
         style="fill:#ffffff;stroke:none" />
      <path
         sodipodi:nodetypes="ccscc"
         inkscape:connector-curvature="0"
         id="path4108-3-3"
         d="m 227.38619,650.54345 c -2.97895,-0.18411 -4.72479,1.29614 -6.26091,3.05947 0,0 3.16662,18.75848 3.8311,18.59914 4.22923,-1.01417 10.24086,-22.07283 6.75101,-20.67531 -0.75859,-1.2456 -1.83944,-2.05737 -4.3212,-0.9833 z"
         style="fill:#ff9955;fill-rule:evenodd;stroke:none;stroke-width:1px;stroke-linecap:butt;stroke-linejoin:miter;stroke-opacity:1" />
      <path
         sodipodi:nodetypes="ccscc"
         inkscape:connector-curvature="0"
         id="path4108-5"
         d="m 228.75367,650.02921 c -2.83418,-0.93564 -4.89908,0.0519 -6.83313,1.36662 0,0 -5.31051,17.35401 -4.95401,17.93696 1.45843,2.38482 16.98836,-15.76944 15.71619,-17.25364 -0.41686,-1.39757 -1.25573,-2.45753 -3.92905,-2.04994 z"
         style="fill:#ff7f2a;fill-rule:evenodd;stroke:none;stroke-width:1px;stroke-linecap:butt;stroke-linejoin:miter;stroke-opacity:1" />
      <path
         sodipodi:nodetypes="cssc"
         inkscape:connector-curvature="0"
         id="path4112-9"
         d="m 248.22808,671.38273 c 23.77081,-8.58993 14.2917,44.76879 11.44549,38.94882 -0.48446,-0.99062 -0.82096,-17.1851 -9.31578,-22.88255 -7.82897,-5.25088 -1.53378,-15.96694 -2.12971,-16.06627 z"
         style="fill:#000000;fill-rule:evenodd;stroke:none;stroke-width:1px;stroke-linecap:butt;stroke-linejoin:miter;stroke-opacity:1" />
      <path
         sodipodi:nodetypes="ccscc"
         inkscape:connector-curvature="0"
         id="path4114-8"
         d="m 207.25995,727.9201 c -0.65749,0.51298 -8.75009,5.64631 -8.75009,5.64631 0,0 -0.56574,6.00144 3.90624,5.30016 11.61833,-1.82193 20.61066,-6.84068 16.29191,-6.67428 z"
         style="fill:#ff6600;fill-rule:evenodd;stroke:none;stroke-width:0.98140359px;stroke-linecap:butt;stroke-linejoin:miter;stroke-opacity:1" />
      <path
         sodipodi:nodetypes="csccc"
         inkscape:connector-curvature="0"
         id="path4116-4"
         d="m 243.61572,733.56419 c 0.68331,0 6.48751,1.88706 9.56638,3.41656 7.81887,3.88421 13.29304,-1.57351 12.1288,-2.90407 l -10.59135,-5.63734 c -14.83597,5.00226 -7.68726,3.92905 -11.10383,5.12485 z"
         style="fill:#d45500;fill-rule:evenodd;stroke:none;stroke-width:1px;stroke-linecap:butt;stroke-linejoin:miter;stroke-opacity:1" />
      <ellipse
         ry="2.6478367"
         rx="2.4770086"
         cy="644.13562"
         cx="216.36864"
         id="path4118-9"
         style="fill:#000000;stroke:none" />
      <ellipse
         ry="2.7332506"
         rx="2.8186648"
         cy="641.82947"
         cx="243.5303"
         id="path4122-3"
         style="fill:#000000;stroke:none" />
      <path
         sodipodi:nodetypes="csccc"
         inkscape:connector-curvature="0"
         id="path4124-2"
         d="m 219.52895,733.56419 c 1.61607,-0.36883 -0.64153,-36.09724 -1.36663,-39.97379 -1.60354,-8.57293 18.03833,-13.38844 21.01187,-0.68332 -1.18626,13.12768 -1.32711,26.51672 2.90408,40.99876 -8.05499,1.2325 -15.39826,0.68569 -22.54932,-0.34165 z"
         style="fill:#ffffff;fill-rule:evenodd;stroke:none;stroke-width:1px;stroke-linecap:butt;stroke-linejoin:miter;stroke-opacity:1" />
      <path
         sodipodi:nodetypes="ccc"
         inkscape:connector-curvature="0"
         id="path4143-4"
         d="m 234.04934,627.13824 c 13.0512,-15.10109 25.57072,-4.4827 23.23264,-0.68332 -0.75949,-6.61594 -8.2823,-6.05782 -23.23264,0.68332 z"
         style="fill:#000000;fill-rule:evenodd;stroke:none;stroke-width:1px;stroke-linecap:butt;stroke-linejoin:miter;stroke-opacity:1" />
      <path
         sodipodi:nodetypes="cssc"
         inkscape:connector-curvature="0"
         id="path4112-9-1"
         d="m 208.5137,671.40353 c -23.77081,-8.58993 -14.2917,44.76879 -11.44549,38.94882 0.48446,-0.99062 0.82096,-17.1851 9.31578,-22.88255 7.82897,-5.25088 1.53378,-15.96694 2.12971,-16.06627 z"
         style="fill:#000000;fill-rule:evenodd;stroke:none;stroke-width:1px;stroke-linecap:butt;stroke-linejoin:miter;stroke-opacity:1" />
    </g>
  </g>
</svg>
